<?xml version="1.0" encoding="UTF-8" standalone="no"?>
<!DOCTYPE svg PUBLIC "-//W3C//DTD SVG 1.1//EN"
 "http://www.w3.org/Graphics/SVG/1.1/DTD/svg11.dtd">
<!-- Generated by graphviz version 2.38.0 (20140413.2041)
 -->
<!-- Title: %3 Pages: 1 -->
<svg width="511pt" height="355pt"
 viewBox="0.00 0.00 510.86 355.00" xmlns="http://www.w3.org/2000/svg" xmlns:xlink="http://www.w3.org/1999/xlink">
<g id="graph0" class="graph" transform="scale(1 1) rotate(0) translate(4 351)">
<title>%3</title>
<polygon fill="#333333" stroke="none" points="-4,4 -4,-351 506.861,-351 506.861,4 -4,4"/>
<text text-anchor="middle" x="251.431" y="-9.2" font-family="Times,serif" font-size="16.00" fill="white">Network Map</text>
<!-- R4 -->
<g id="node1" class="node"><title>R4</title>
<polygon fill="#006699" stroke="#006699" points="83.8611,-347 7.86111,-347 7.86111,-274 83.8611,-274 83.8611,-347"/>
<text text-anchor="middle" x="45.8611" y="-306.8" font-family="Helvetica,sans-Serif" font-size="14.00" fill="white">R4</text>
</g>
<!-- R3 -->
<g id="node2" class="node"><title>R3</title>
<polygon fill="#006699" stroke="#006699" points="206.861,-223 130.861,-223 130.861,-150 206.861,-150 206.861,-223"/>
<text text-anchor="middle" x="168.861" y="-182.8" font-family="Helvetica,sans-Serif" font-size="14.00" fill="white">R3</text>
</g>
<!-- R3&#45;&#45;R4 -->
<g id="edge1" class="edge"><title>R3&#45;&#45;R4</title>
<path fill="none" stroke="green" stroke-dasharray="5,2" d="M130.698,-198.554C108.49,-206.844 81.6509,-220.37 64.8611,-241 57.3047,-250.285 52.7468,-262.368 50,-273.796"/>
<text text-anchor="middle" x="114.861" y="-244.8" font-family="Courier,monospace" font-size="14.00" fill="white"> &#160;&#160;&#160;&#160;&#160;&#160;&#160;&#160;&#160;&#160;&#160;</text>
<text text-anchor="middle" x="25" y="-262.596" font-family="Courier,monospace" font-size="14.00" fill="white">Eth0/0</text>
<text text-anchor="middle" x="105.698" y="-187.354" font-family="Courier,monospace" font-size="14.00" fill="white">Eth0/1</text>
</g>
<!-- R5 -->
<g id="node4" class="node"><title>R5</title>
<polygon fill="#006699" stroke="#006699" points="206.861,-347 130.861,-347 130.861,-274 206.861,-274 206.861,-347"/>
<text text-anchor="middle" x="168.861" y="-306.8" font-family="Helvetica,sans-Serif" font-size="14.00" fill="white">R5</text>
</g>
<!-- R3&#45;&#45;R5 -->
<g id="edge4" class="edge"><title>R3&#45;&#45;R5</title>
<path fill="none" stroke="green" stroke-dasharray="5,2" d="M168.861,-223.115C168.861,-239.01 168.861,-257.704 168.861,-273.629"/>
<text text-anchor="middle" x="218.861" y="-244.8" font-family="Courier,monospace" font-size="14.00" fill="white"> &#160;&#160;&#160;&#160;&#160;&#160;&#160;&#160;&#160;&#160;&#160;</text>
<text text-anchor="middle" x="143.861" y="-262.429" font-family="Courier,monospace" font-size="14.00" fill="white">Eth0/0</text>
<text text-anchor="middle" x="143.861" y="-226.915" font-family="Courier,monospace" font-size="14.00" fill="white">Eth0/2</text>
</g>
<!-- SW1 -->
<g id="node3" class="node"><title>SW1</title>
<polygon fill="#006699" stroke="#006699" points="336.361,-99 247.361,-99 247.361,-26 336.361,-26 336.361,-99"/>
<text text-anchor="middle" x="291.861" y="-58.8" font-family="Helvetica,sans-Serif" font-size="14.00" fill="white">SW1</text>
</g>
<!-- SW1&#45;&#45;R3 -->
<g id="edge2" class="edge"><title>SW1&#45;&#45;R3</title>
<path fill="none" stroke="green" stroke-dasharray="5,2" d="M247.227,-77.0716C226.46,-85.4899 203.049,-98.3383 187.861,-117 180.305,-126.285 175.747,-138.368 173,-149.796"/>
<text text-anchor="middle" x="237.861" y="-120.8" font-family="Courier,monospace" font-size="14.00" fill="white"> &#160;&#160;&#160;&#160;&#160;&#160;&#160;&#160;&#160;&#160;&#160;</text>
<text text-anchor="middle" x="148" y="-138.596" font-family="Courier,monospace" font-size="14.00" fill="white">Eth0/0</text>
<text text-anchor="middle" x="222.227" y="-65.8716" font-family="Courier,monospace" font-size="14.00" fill="white">Eth0/3</text>
</g>
<!-- R2 -->
<g id="node5" class="node"><title>R2</title>
<polygon fill="#006699" stroke="#006699" points="329.861,-223 253.861,-223 253.861,-150 329.861,-150 329.861,-223"/>
<text text-anchor="middle" x="291.861" y="-182.8" font-family="Helvetica,sans-Serif" font-size="14.00" fill="white">R2</text>
</g>
<!-- SW1&#45;&#45;R2 -->
<g id="edge5" class="edge"><title>SW1&#45;&#45;R2</title>
<path fill="none" stroke="green" stroke-dasharray="5,2" d="M291.861,-99.1154C291.861,-115.01 291.861,-133.704 291.861,-149.629"/>
<text text-anchor="middle" x="341.861" y="-120.8" font-family="Courier,monospace" font-size="14.00" fill="white"> &#160;&#160;&#160;&#160;&#160;&#160;&#160;&#160;&#160;&#160;&#160;</text>
<text text-anchor="middle" x="266.861" y="-138.429" font-family="Courier,monospace" font-size="14.00" fill="white">Eth0/0</text>
<text text-anchor="middle" x="266.861" y="-102.915" font-family="Courier,monospace" font-size="14.00" fill="white">Eth0/2</text>
</g>
<!-- R1 -->
<g id="node6" class="node"><title>R1</title>
<polygon fill="#006699" stroke="#006699" points="452.861,-223 376.861,-223 376.861,-150 452.861,-150 452.861,-223"/>
<text text-anchor="middle" x="414.861" y="-182.8" font-family="Helvetica,sans-Serif" font-size="14.00" fill="white">R1</text>
</g>
<!-- SW1&#45;&#45;R1 -->
<g id="edge3" class="edge"><title>SW1&#45;&#45;R1</title>
<path fill="none" stroke="green" stroke-dasharray="5,2" d="M336.437,-78.2791C356.149,-86.8239 378.146,-99.43 392.861,-117 400.641,-126.288 405.683,-138.373 408.946,-149.8"/>
<text text-anchor="middle" x="452.861" y="-120.8" font-family="Courier,monospace" font-size="14.00" fill="white"> &#160;&#160;&#160;&#160;&#160;&#160;&#160;&#160;&#160;&#160;&#160;</text>
<text text-anchor="middle" x="383.946" y="-138.6" font-family="Courier,monospace" font-size="14.00" fill="white">Eth0/0</text>
<text text-anchor="middle" x="361.437" y="-67.0791" font-family="Courier,monospace" font-size="14.00" fill="white">Eth0/1</text>
</g>
<!-- SW2 -->
<g id="node7" class="node"><title>SW2</title>
<polygon fill="#006699" stroke="#006699" points="336.361,-347 247.361,-347 247.361,-274 336.361,-274 336.361,-347"/>
<text text-anchor="middle" x="291.861" y="-306.8" font-family="Helvetica,sans-Serif" font-size="14.00" fill="white">SW2</text>
</g>
<!-- R2&#45;&#45;SW2 -->
<g id="edge6" class="edge"><title>R2&#45;&#45;SW2</title>
<path fill="none" stroke="green" stroke-dasharray="5,2" d="M291.861,-223.115C291.861,-239.01 291.861,-257.704 291.861,-273.629"/>
<text text-anchor="middle" x="341.861" y="-244.8" font-family="Courier,monospace" font-size="14.00" fill="white"> &#160;&#160;&#160;&#160;&#160;&#160;&#160;&#160;&#160;&#160;&#160;</text>
<text text-anchor="middle" x="262.861" y="-262.429" font-family="Courier,monospace" font-size="14.00" fill="white">Eth0/11</text>
<text text-anchor="middle" x="266.861" y="-226.915" font-family="Courier,monospace" font-size="14.00" fill="white">Eth0/1</text>
</g>
</g>
</svg>
