<?xml version="1.0" encoding="UTF-8" standalone="no"?>
<!DOCTYPE svg PUBLIC "-//W3C//DTD SVG 1.1//EN"
 "http://www.w3.org/Graphics/SVG/1.1/DTD/svg11.dtd">
<!-- Generated by graphviz version 2.38.0 (20140413.2041)
 -->
<!-- Title: %3 Pages: 1 -->
<svg width="873pt" height="231pt"
 viewBox="0.00 0.00 872.59 231.00" xmlns="http://www.w3.org/2000/svg" xmlns:xlink="http://www.w3.org/1999/xlink">
<g id="graph0" class="graph" transform="scale(1 1) rotate(0) translate(4 227)">
<title>%3</title>
<polygon fill="#3f3f3f" stroke="none" points="-4,4 -4,-227 868.587,-227 868.587,4 -4,4"/>
<text text-anchor="middle" x="432.293" y="-9.2" font-family="Times,serif" font-size="16.00" fill="white">Network Map</text>
<!-- R4 -->
<g id="node1" class="node"><title>R4</title>
<polygon fill="#006699" stroke="#006699" points="455.587,-223 379.587,-223 379.587,-150 455.587,-150 455.587,-223"/>
<text text-anchor="middle" x="417.587" y="-182.8" font-family="Helvetica,sans-Serif" font-size="14.00" fill="white">R4</text>
</g>
<!-- R1 -->
<g id="node2" class="node"><title>R1</title>
<polygon fill="#006699" stroke="#006699" points="209.587,-223 133.587,-223 133.587,-150 209.587,-150 209.587,-223"/>
<text text-anchor="middle" x="171.587" y="-182.8" font-family="Helvetica,sans-Serif" font-size="14.00" fill="white">R1</text>
</g>
<!-- SW1 -->
<g id="node3" class="node"><title>SW1</title>
<polygon fill="#006699" stroke="#006699" points="277.087,-99 188.087,-99 188.087,-26 277.087,-26 277.087,-99"/>
<text text-anchor="middle" x="232.587" y="-58.8" font-family="Helvetica,sans-Serif" font-size="14.00" fill="white">SW1</text>
</g>
<!-- SW1&#45;&#45;R4 -->
<g id="edge3" class="edge"><title>SW1&#45;&#45;R4</title>
<path fill="none" stroke="green" stroke-dasharray="5,2" d="M260.234,-99.0535C270.449,-110.601 282.702,-122.797 295.587,-132 321.276,-150.349 354.255,-164.341 379.447,-173.405"/>
<text text-anchor="middle" x="345.587" y="-120.8" font-family="Courier,monospace" font-size="14.00" fill="white"> &#160;&#160;&#160;&#160;&#160;&#160;&#160;&#160;&#160;&#160;&#160;</text>
<text text-anchor="middle" x="354.447" y="-162.205" font-family="Courier,monospace" font-size="14.00" fill="white">Eth0/0</text>
<text text-anchor="middle" x="235.234" y="-102.853" font-family="Courier,monospace" font-size="14.00" fill="white">Eth0/4</text>
</g>
<!-- SW1&#45;&#45;R1 -->
<g id="edge4" class="edge"><title>SW1&#45;&#45;R1</title>
<path fill="none" stroke="green" stroke-dasharray="5,2" d="M187.93,-95.2384C181.73,-101.702 176.241,-109.003 172.587,-117 167.99,-127.061 166.601,-138.852 166.695,-149.788"/>
<text text-anchor="middle" x="222.587" y="-120.8" font-family="Courier,monospace" font-size="14.00" fill="white"> &#160;&#160;&#160;&#160;&#160;&#160;&#160;&#160;&#160;&#160;&#160;</text>
<text text-anchor="middle" x="141.695" y="-138.588" font-family="Courier,monospace" font-size="14.00" fill="white">Eth0/0</text>
<text text-anchor="middle" x="162.93" y="-84.0384" font-family="Courier,monospace" font-size="14.00" fill="white">Eth0/1</text>
</g>
<!-- R3 -->
<g id="node5" class="node"><title>R3</title>
<polygon fill="#006699" stroke="#006699" points="86.5865,-223 10.5865,-223 10.5865,-150 86.5865,-150 86.5865,-223"/>
<text text-anchor="middle" x="48.5865" y="-182.8" font-family="Helvetica,sans-Serif" font-size="14.00" fill="white">R3</text>
</g>
<!-- SW1&#45;&#45;R3 -->
<g id="edge1" class="edge"><title>SW1&#45;&#45;R3</title>
<path fill="none" stroke="green" stroke-dasharray="5,2" d="M187.945,-65.8524C149.821,-70.2939 96.2679,-82.7171 64.5865,-117 56.3809,-125.879 52.129,-138.135 50,-149.829"/>
<text text-anchor="middle" x="114.587" y="-120.8" font-family="Courier,monospace" font-size="14.00" fill="white"> &#160;&#160;&#160;&#160;&#160;&#160;&#160;&#160;&#160;&#160;&#160;</text>
<text text-anchor="middle" x="25" y="-138.629" font-family="Courier,monospace" font-size="14.00" fill="white">Eth0/0</text>
<text text-anchor="middle" x="162.945" y="-54.6524" font-family="Courier,monospace" font-size="14.00" fill="white">Eth0/3</text>
</g>
<!-- R2 -->
<g id="node7" class="node"><title>R2</title>
<polygon fill="#006699" stroke="#006699" points="701.587,-223 625.587,-223 625.587,-150 701.587,-150 701.587,-223"/>
<text text-anchor="middle" x="663.587" y="-182.8" font-family="Helvetica,sans-Serif" font-size="14.00" fill="white">R2</text>
</g>
<!-- SW1&#45;&#45;R2 -->
<g id="edge2" class="edge"><title>SW1&#45;&#45;R2</title>
<path fill="none" stroke="green" stroke-dasharray="5,2" d="M277.187,-73.6111C310.948,-82.3209 357.799,-96.7127 395.587,-117 405.066,-122.089 404.852,-127.418 414.587,-132 451.591,-149.419 565.148,-169.602 625.291,-179.457"/>
<text text-anchor="middle" x="464.587" y="-120.8" font-family="Courier,monospace" font-size="14.00" fill="white"> &#160;&#160;&#160;&#160;&#160;&#160;&#160;&#160;&#160;&#160;&#160;</text>
<text text-anchor="middle" x="600.291" y="-168.257" font-family="Courier,monospace" font-size="14.00" fill="white">Eth0/0</text>
<text text-anchor="middle" x="302.187" y="-62.4111" font-family="Courier,monospace" font-size="14.00" fill="white">Eth0/2</text>
</g>
<!-- R5 -->
<g id="node4" class="node"><title>R5</title>
<polygon fill="#006699" stroke="#006699" points="639.587,-99 563.587,-99 563.587,-26 639.587,-26 639.587,-99"/>
<text text-anchor="middle" x="601.587" y="-58.8" font-family="Helvetica,sans-Serif" font-size="14.00" fill="white">R5</text>
</g>
<!-- R5&#45;&#45;R4 -->
<g id="edge5" class="edge"><title>R5&#45;&#45;R4</title>
<path fill="none" stroke="green" stroke-dasharray="5,2" d="M563.359,-95.6427C543.986,-111.823 523.52,-128.707 518.587,-132 498.782,-145.219 475.351,-157.801 456.046,-167.438"/>
<text text-anchor="middle" x="587.587" y="-120.8" font-family="Courier,monospace" font-size="14.00" fill="white"> &#160;&#160;&#160;&#160;&#160;&#160;&#160;&#160;&#160;&#160;&#160;</text>
<text text-anchor="middle" x="481.046" y="-156.238" font-family="Courier,monospace" font-size="14.00" fill="white">Eth0/1</text>
<text text-anchor="middle" x="538.359" y="-84.4427" font-family="Courier,monospace" font-size="14.00" fill="white">Eth0/1</text>
</g>
<!-- R5&#45;&#45;R2 -->
<g id="edge7" class="edge"><title>R5&#45;&#45;R2</title>
<path fill="none" stroke="green" stroke-dasharray="5,2" d="M630.822,-99.2785C634.762,-105.007 638.502,-111.023 641.587,-117 646.856,-127.212 651.179,-138.931 654.556,-149.755"/>
<text text-anchor="middle" x="698.587" y="-120.8" font-family="Courier,monospace" font-size="14.00" fill="white"> &#160;&#160;&#160;&#160;&#160;&#160;&#160;&#160;&#160;&#160;&#160;</text>
<text text-anchor="middle" x="629.556" y="-138.555" font-family="Courier,monospace" font-size="14.00" fill="white">Eth0/1</text>
<text text-anchor="middle" x="605.822" y="-103.079" font-family="Courier,monospace" font-size="14.00" fill="white">Eth0/0</text>
</g>
<!-- R6 -->
<g id="node6" class="node"><title>R6</title>
<polygon fill="#006699" stroke="#006699" points="824.587,-99 748.587,-99 748.587,-26 824.587,-26 824.587,-99"/>
<text text-anchor="middle" x="786.587" y="-58.8" font-family="Helvetica,sans-Serif" font-size="14.00" fill="white">R6</text>
</g>
<!-- R6&#45;&#45;R2 -->
<g id="edge6" class="edge"><title>R6&#45;&#45;R2</title>
<path fill="none" stroke="green" stroke-dasharray="5,2" d="M773.472,-99.3481C768.171,-110.657 761.229,-122.632 752.587,-132 738.406,-147.371 718.803,-159.796 701.603,-168.79"/>
<text text-anchor="middle" x="814.587" y="-120.8" font-family="Courier,monospace" font-size="14.00" fill="white"> &#160;&#160;&#160;&#160;&#160;&#160;&#160;&#160;&#160;&#160;&#160;</text>
<text text-anchor="middle" x="726.603" y="-157.59" font-family="Courier,monospace" font-size="14.00" fill="white">Eth0/2</text>
<text text-anchor="middle" x="748.472" y="-103.148" font-family="Courier,monospace" font-size="14.00" fill="white">Eth0/1</text>
</g>
</g>
</svg>
